# xmcd
#
# Track frame offsets:
#	150
#	19896
#	50292
#	69715
#	99724
#	123841
#	146902
#	184653
#	204565
#	232130
#	258834
#	284482
#
# Disc length: 4086 seconds
#
# Revision: 1
# Processed by: cddbd v1.5.2PL0 Copyright (c) Steve Scherf et al.
# Submitted via: audiograbber 1.83.01
#
DISCID=b70ff40c
DTITLE=Sister Wives - Unenhanced
DYEAR=2010
DGENRE=Blues
TTITLE0=New Used Car
TTITLE1=Flat Back Flat Head
TTITLE2=Put Your Mone
TTITLE3=Little By Little
TTITLE4=Better
TTITLE5=Shake That Thing
TTITLE6=Annie Mae
TTITLE7=Prodical Son
TTITLE8=Angel From Montgomery
TTITLE9=Rock Me Right
TTITLE10=Voo Doo Woman
TTITLE11=Shadow Of Doubt
EXTD=
EXTT0=
EXTT1=
EXTT2=
EXTT3=
EXTT4=
EXTT5=
EXTT6=
EXTT7=
EXTT8=
EXTT9=
EXTT10=
EXTT11=
PLAYORDER=
